<svg version="1.1" xmlns="http://www.w3.org/2000/svg" viewBox="0 0 1534.3614251861236 202.29965223144518" width="1534.3614251861236" height="202.29965223144518">
  <!-- svg-source:excalidraw -->
  
  <defs>
    <style>
      @font-face {
        font-family: "Virgil";
        src: url("https://excalidraw.com/Virgil.woff2");
      }
      @font-face {
        font-family: "Cascadia";
        src: url("https://excalidraw.com/Cascadia.woff2");
      }
    </style>
  </defs>
  <g transform="translate(133.70707070707067 89.38046031225258) rotate(0 41 22.5)"><text x="0" y="32" font-family="Virgil, Segoe UI Emoji" font-size="36px" fill="#000000" text-anchor="start" style="white-space: pre;" direction="ltr">User</text></g><g transform="translate(63.07317073170452 144.39943050195507) rotate(0 11.60864745011122 -25.41352549889143)" stroke="none"><path fill="#000000" d="M -1.64,0 Q -1.64,0 -1.66,-1.80 -1.69,-3.60 -1.70,-5.45 -1.72,-7.30 -1.90,-9.09 -2.08,-10.87 -2.27,-13.10 -2.47,-15.33 -2.55,-18.15 -2.62,-20.96 -2.64,-24.14 -2.65,-27.31 -2.47,-30.86 -2.29,-34.41 -1.84,-37.42 -1.38,-40.42 -0.43,-42.89 0.51,-45.37 1.22,-46.99 1.92,-48.61 2.83,-49.86 3.73,-51.11 4.87,-51.83 6.00,-52.56 7.15,-52.90 8.29,-53.23 9.56,-53.21 10.83,-53.18 12.34,-52.52 13.85,-51.86 15.16,-51.02 16.46,-50.18 17.64,-49.23 18.82,-48.29 19.98,-46.57 21.14,-44.85 21.97,-43.19 22.79,-41.54 23.49,-39.93 24.19,-38.32 24.73,-36.85 25.26,-35.39 25.54,-33.89 25.83,-32.40 26.10,-30.98 26.36,-29.55 26.52,-28.10 26.67,-26.65 26.76,-25.49 26.86,-24.33 26.91,-23.11 26.96,-21.88 26.94,-20.28 26.92,-18.67 26.75,-17.27 26.59,-15.87 26.57,-14.12 26.55,-12.38 26.61,-11.14 26.66,-9.89 26.71,-8.30 26.77,-6.72 26.84,-5.31 26.91,-3.91 26.94,-2.54 26.98,-1.16 26.37,0.65 25.76,2.47 24.29,3.13 22.83,3.79 21.39,3.85 19.96,3.91 17.86,3.70 15.76,3.48 14.33,3.40 12.89,3.32 11.18,3.30 9.47,3.27 7.31,3.05 5.15,2.82 2.87,3.04 0.59,3.26 0.06,3.20 -0.46,3.13 -0.94,2.90 -1.42,2.68 -1.80,2.31 -2.18,1.94 -2.43,1.47 -2.67,0.99 -2.75,0.47 -2.83,-0.05 -2.74,-0.57 -2.65,-1.10 -2.40,-1.56 -2.14,-2.03 -1.75,-2.39 -1.36,-2.75 -0.88,-2.97 -0.40,-3.19 0.12,-3.24 0.65,-3.29 1.17,-3.17 1.69,-3.06 2.14,-2.78 2.59,-2.50 2.93,-2.09 3.27,-1.68 3.47,-1.18 3.66,-0.69 3.68,-0.16 3.71,0.36 3.56,0.87 3.41,1.38 3.11,1.82 2.80,2.26 2.38,2.58 1.95,2.89 1.45,3.06 0.94,3.22 0.41,3.22 -0.11,3.21 -0.61,3.04 -1.12,2.86 -1.54,2.54 -1.96,2.21 -2.25,1.77 -2.54,1.32 -2.68,0.81 -2.82,0.30 -2.78,-0.22 -2.75,-0.75 -2.55,-1.25 -2.35,-1.74 -2.00,-2.14 -1.65,-2.54 -1.19,-2.81 -0.73,-3.08 -0.21,-3.19 0.30,-3.30 0.30,-3.30 0.30,-3.30 2.44,-3.52 4.58,-3.75 6.12,-3.50 7.66,-3.25 9.51,-3.25 11.36,-3.25 13.09,-3.20 14.81,-3.14 16.51,-2.90 18.21,-2.67 20.04,-2.61 21.88,-2.55 21.35,-1.57 20.83,-0.59 20.78,-1.67 20.73,-2.74 20.79,-4.24 20.86,-5.74 20.92,-6.96 20.98,-8.19 21.05,-9.85 21.11,-11.51 21.24,-12.90 21.37,-14.29 21.68,-16.47 21.99,-18.65 21.95,-20.22 21.92,-21.80 21.93,-22.96 21.94,-24.12 21.93,-25.19 21.93,-26.25 21.86,-27.48 21.78,-28.72 21.52,-30.21 21.26,-31.70 21.14,-32.82 21.02,-33.94 20.60,-35.23 20.18,-36.53 19.50,-38.01 18.81,-39.50 18.08,-40.89 17.34,-42.28 16.53,-43.47 15.72,-44.66 14.80,-45.46 13.87,-46.26 12.78,-47.01 11.70,-47.75 10.37,-48.44 9.04,-49.12 7.66,-48.96 6.27,-48.80 5.46,-48.03 4.65,-47.25 3.86,-45.81 3.08,-44.37 2.22,-42.19 1.37,-40.00 0.96,-37.14 0.56,-34.28 0.42,-30.82 0.28,-27.35 0.36,-24.22 0.43,-21.08 0.58,-18.39 0.72,-15.70 1.04,-13.45 1.35,-11.20 1.53,-9.25 1.72,-7.30 1.70,-5.45 1.69,-3.60 1.66,-1.80 1.64,0 1.61,0.19 1.59,0.39 1.52,0.57 1.45,0.76 1.34,0.92 1.22,1.08 1.08,1.21 0.93,1.35 0.75,1.44 0.58,1.53 0.38,1.58 0.19,1.62 -0.00,1.62 -0.19,1.62 -0.39,1.58 -0.58,1.53 -0.75,1.44 -0.93,1.35 -1.08,1.21 -1.22,1.08 -1.34,0.92 -1.45,0.76 -1.52,0.57 -1.59,0.39 -1.61,0.19 -1.64,-0.00 -1.64,-0.00 L -1.64,0 Z"></path></g><g transform="translate(74.36807095343465 69.72759014718667) rotate(0 -0.9412416851446324 9.726164079822865)" stroke="none"><path fill="#000000" d="M 1.09,2.19 Q 1.09,2.19 0.03,2.75 -1.03,3.32 -2.52,4.64 -4.01,5.96 -4.75,6.84 -5.49,7.71 -5.97,9.47 -6.46,11.24 -5.83,12.77 -5.20,14.30 -3.31,15.28 -1.42,16.27 0.62,16.33 2.67,16.39 3.48,15.30 4.28,14.20 4.48,12.56 4.68,10.92 3.73,9.10 2.79,7.28 1.90,6.30 1.01,5.32 -0.26,3.88 -1.55,2.44 -1.70,2.05 -1.85,1.66 -1.88,1.25 -1.90,0.83 -1.79,0.42 -1.67,0.02 -1.44,-0.31 -1.20,-0.66 -0.87,-0.91 -0.53,-1.17 -0.14,-1.30 0.25,-1.43 0.67,-1.43 1.09,-1.43 1.48,-1.30 1.88,-1.16 2.21,-0.91 2.55,-0.65 2.78,-0.31 3.02,0.03 3.13,0.43 3.24,0.84 3.21,1.26 3.19,1.67 3.04,2.06 2.88,2.45 2.61,2.77 2.34,3.09 1.98,3.30 1.62,3.52 1.21,3.61 0.80,3.70 0.38,3.65 -0.02,3.60 -0.40,3.43 -0.78,3.25 -1.09,2.96 -1.39,2.67 -1.58,2.30 -1.78,1.93 -1.85,1.52 -1.91,1.11 -1.84,0.69 -1.78,0.28 -1.58,-0.08 -1.38,-0.45 -1.08,-0.74 -0.77,-1.02 -0.39,-1.20 -0.01,-1.37 0.39,-1.42 0.81,-1.46 1.22,-1.37 1.63,-1.28 1.99,-1.06 2.34,-0.85 2.61,-0.53 2.88,-0.21 2.88,-0.21 2.88,-0.21 3.79,0.86 4.69,1.95 5.97,3.34 7.25,4.74 8.30,6.50 9.34,8.26 9.68,9.79 10.01,11.32 9.84,12.73 9.67,14.14 9.23,15.46 8.79,16.79 7.66,18.36 6.53,19.94 4.83,20.71 3.12,21.49 1.34,21.57 -0.43,21.65 -1.96,21.31 -3.50,20.97 -4.97,20.28 -6.45,19.59 -8.01,18.36 -9.58,17.14 -10.55,15.34 -11.52,13.54 -11.59,11.90 -11.66,10.27 -11.32,8.74 -10.97,7.22 -10.22,5.78 -9.48,4.34 -8.47,3.19 -7.46,2.03 -6.59,1.32 -5.72,0.60 -4.50,-0.27 -3.29,-1.15 -2.19,-1.67 -1.09,-2.19 -0.81,-2.29 -0.53,-2.39 -0.24,-2.42 0.04,-2.45 0.34,-2.41 0.63,-2.36 0.90,-2.25 1.18,-2.14 1.42,-1.97 1.66,-1.80 1.85,-1.57 2.04,-1.35 2.17,-1.08 2.30,-0.82 2.37,-0.53 2.43,-0.24 2.43,0.04 2.42,0.34 2.35,0.62 2.27,0.91 2.13,1.17 1.99,1.43 1.78,1.64 1.58,1.86 1.34,2.03 1.09,2.19 1.09,2.19 L 1.09,2.19 Z"></path></g><g stroke-linecap="round" transform="translate(10 29.572379504172204) rotate(0 127.72727272727252 81.36363636363649)"><path d="M1.36 1.56 C103.37 -0.02, 203 0.1, 255.46 0.44 M-0.48 -0.76 C81.51 0.57, 163.91 0.62, 255.64 -0.25 M254.45 -0.75 C254.14 38.09, 256.46 78.2, 254.89 161.82 M254.62 -0.95 C253.16 36.46, 254.84 74.41, 255.64 163.61 M254.02 162.74 C187.74 162.62, 124.28 164.59, 1.22 163.56 M254.66 163.17 C186.75 164.38, 116.91 163.35, 0 162.09 M1.5 163.45 C0.29 97.23, -0.69 31.42, 0.7 0.66 M0.6 162.29 C1.5 125.12, 1.98 87.66, -0.17 0.09" stroke="#000000" stroke-width="1" fill="none"></path></g><g stroke-linecap="round"><g transform="translate(271.818181818182 112.29965223144518) rotate(0 135.8699785079466 -0.005799982805001491)"><path d="M-0.99 -0.96 C44.41 -1.22, 226.91 -1.22, 272.73 -0.95 M0.69 1.14 C45.9 0.96, 226.27 0.5, 271.78 0.08" stroke="#000000" stroke-width="1" fill="none"></path></g><g transform="translate(271.818181818182 112.29965223144518) rotate(0 135.8699785079466 -0.005799982805001491)"><path d="M242.04 10.5 C251.27 9.27, 263.24 4.53, 273.29 0.81 M242.81 10.85 C254.14 6.05, 263.14 2.87, 272.38 -0.35" stroke="#000000" stroke-width="1" fill="none"></path></g><g transform="translate(271.818181818182 112.29965223144518) rotate(0 135.8699785079466 -0.005799982805001491)"><path d="M241.93 -10.02 C251.3 -4.5, 263.3 -2.48, 273.29 0.81 M242.7 -9.68 C254 -7.08, 263.04 -2.88, 272.38 -0.35" stroke="#000000" stroke-width="1" fill="none"></path></g></g><g transform="translate(314.54545454545405 60.84510677689923) rotate(0 90.5 22.5)"><text x="0" y="32" font-family="Virgil, Segoe UI Emoji" font-size="36px" fill="#000000" text-anchor="start" style="white-space: pre;" direction="ltr">Pushes to</text></g><g stroke-linecap="round" transform="translate(554.0909090909063 29.117834049625344) rotate(0 139.7065864022502 81.36363636363649)"><path d="M-0.58 -0.53 C96.72 -2.52, 194.8 -1.35, 279.99 -0.98 M0.59 0.56 C104.12 1.1, 209.15 0.7, 279.56 -0.67 M278.09 -0.14 C280.15 43.21, 279.92 83.43, 278.26 162.08 M279.63 0.98 C278.82 58.22, 280.2 115.17, 279.24 162.5 M280.22 161.87 C189.43 160.34, 96.88 160.35, 0.4 163.85 M280.17 162.78 C200.89 161.72, 122.19 161.5, 0.44 162.29 M0.08 162.57 C1.16 108.24, -0.75 50.9, -0.72 0.58 M-0.99 162.77 C-0.51 125.38, -0.36 86.46, 0.76 0.81" stroke="#000000" stroke-width="1" fill="none"></path></g><g transform="translate(683.4583411800495 91.8709670319331) rotate(0 58.5 22.5)"><text x="0" y="32" font-family="Virgil, Segoe UI Emoji" font-size="36px" fill="#000000" text-anchor="start" style="white-space: pre;" direction="ltr">GitHub</text></g><g transform="translate(634.7448592688515 76.8164862318963) rotate(0 -6.259080133339467 28.165860600027372)" stroke="none"><path fill="#000000" d="M -1.14,1.91 Q -1.14,1.91 -2.62,0.98 -4.10,0.06 -5.84,-0.24 -7.58,-0.54 -8.67,-0.56 -9.76,-0.58 -11.14,-0.61 -12.53,-0.63 -14.01,-0.66 -15.48,-0.68 -16.98,-0.23 -18.48,0.20 -19.62,0.93 -20.76,1.66 -21.75,2.73 -22.73,3.79 -23.84,4.94 -24.95,6.09 -25.95,7.56 -26.95,9.03 -28.06,10.84 -29.17,12.66 -30.26,14.62 -31.36,16.58 -32.10,18.78 -32.84,20.98 -33.17,23.05 -33.49,25.12 -33.65,27.49 -33.81,29.86 -33.59,32.28 -33.37,34.70 -32.71,36.85 -32.04,38.99 -31.18,40.76 -30.32,42.52 -29.12,44.10 -27.93,45.68 -26.32,46.88 -24.70,48.08 -22.77,49.54 -20.84,51.01 -18.60,52.17 -16.37,53.34 -14.52,54.12 -12.68,54.91 -10.98,55.49 -9.29,56.07 -7.66,56.59 -6.03,57.10 -4.67,57.58 -3.31,58.05 -2.05,58.17 -0.79,58.28 0.91,58.37 2.63,58.47 4.57,58.54 6.51,58.62 8.22,58.63 9.92,58.63 11.23,58.09 12.54,57.55 13.53,56.56 14.53,55.58 15.19,54.38 15.84,53.19 16.42,51.80 17.01,50.42 17.59,48.70 18.17,46.99 18.42,45.18 18.68,43.38 19.16,41.01 19.64,38.64 20.16,36.14 20.69,33.64 20.92,31.46 21.14,29.28 21.25,26.86 21.36,24.45 21.12,22.31 20.88,20.17 20.49,18.06 20.10,15.96 19.64,13.55 19.18,11.14 18.39,9.72 17.59,8.29 16.20,6.86 14.80,5.44 12.75,3.93 10.70,2.42 8.38,1.19 6.06,-0.03 3.64,-0.83 1.22,-1.63 -0.13,-0.83 -1.48,-0.02 -1.65,-0.10 -1.83,-0.19 -1.98,-0.31 -2.13,-0.43 -2.24,-0.59 -2.36,-0.74 -2.44,-0.92 -2.51,-1.10 -2.54,-1.29 -2.58,-1.48 -2.56,-1.67 -2.54,-1.86 -2.48,-2.05 -2.42,-2.23 -2.32,-2.39 -2.22,-2.56 -2.08,-2.69 -1.94,-2.83 -1.77,-2.92 -1.60,-3.02 -1.42,-3.07 -1.23,-3.13 -1.04,-3.14 -0.84,-3.14 -0.66,-3.11 -0.47,-3.07 0.05,-2.49 0.58,-1.92 0.60,-1.66 0.62,-1.40 0.55,-1.15 0.49,-0.90 0.35,-0.68 0.21,-0.47 0.00,-0.30 -0.19,-0.14 -0.44,-0.05 -0.68,0.02 -0.94,0.03 -1.20,0.03 -1.45,-0.03 -1.69,-0.11 -1.90,-0.26 -2.11,-0.42 -2.26,-0.63 -2.41,-0.84 -2.49,-1.09 -2.56,-1.34 -2.55,-1.60 -2.55,-1.86 -2.45,-2.10 -2.36,-2.34 -2.20,-2.54 -2.04,-2.75 -1.82,-2.88 -1.60,-3.02 -1.34,-3.08 -1.09,-3.14 -0.83,-3.12 -0.58,-3.10 -0.34,-2.99 -0.10,-2.89 0.08,-2.72 0.27,-2.54 0.40,-2.31 0.53,-2.09 0.57,-1.83 0.62,-1.58 0.59,-1.32 0.55,-1.06 0.43,-0.83 0.32,-0.60 0.13,-0.42 -0.04,-0.24 -0.28,-0.12 -0.51,-0.01 -0.77,0.02 -1.03,0.05 -1.28,0.00 -1.53,-0.04 -1.76,-0.17 -1.99,-0.30 -2.16,-0.49 -2.33,-0.69 -1.90,-0.36 -1.48,-0.02 -1.65,-0.10 -1.83,-0.19 -1.98,-0.31 -2.13,-0.43 -2.24,-0.59 -2.36,-0.74 -2.44,-0.92 -2.51,-1.10 -2.54,-1.29 -2.58,-1.48 -2.56,-1.67 -2.54,-1.86 -2.48,-2.05 -2.42,-2.23 -2.32,-2.39 -2.22,-2.56 -2.08,-2.69 -1.94,-2.83 -1.77,-2.92 -1.60,-3.02 -1.42,-3.07 -1.23,-3.13 -1.04,-3.14 -0.85,-3.14 -0.66,-3.11 -0.47,-3.07 0.80,-3.64 2.07,-4.22 4.70,-3.34 7.33,-2.47 9.84,-1.16 12.35,0.15 14.61,1.79 16.86,3.43 18.55,5.18 20.23,6.94 21.05,8.77 21.86,10.59 22.34,13.01 22.83,15.44 23.27,17.64 23.70,19.84 23.99,22.19 24.28,24.54 24.22,27.05 24.15,29.55 23.98,31.89 23.81,34.23 23.39,36.72 22.97,39.21 22.64,41.52 22.31,43.83 22.07,45.98 21.83,48.14 21.25,50.09 20.67,52.04 19.93,53.63 19.19,55.23 18.14,56.81 17.09,58.39 15.50,59.71 13.90,61.03 11.94,61.68 9.97,62.32 8.20,62.29 6.43,62.25 4.43,62.25 2.43,62.24 0.51,62.14 -1.39,62.04 -3.03,61.69 -4.67,61.33 -5.88,60.72 -7.10,60.11 -8.72,59.48 -10.34,58.84 -12.05,58.12 -13.76,57.41 -15.69,56.56 -17.61,55.71 -20.03,54.43 -22.45,53.16 -24.40,51.70 -26.34,50.24 -28.22,48.80 -30.10,47.36 -31.46,45.55 -32.83,43.74 -33.77,41.78 -34.70,39.81 -35.45,37.40 -36.19,34.99 -36.46,32.34 -36.72,29.70 -36.61,27.20 -36.50,24.69 -36.19,22.36 -35.88,20.03 -35.13,17.52 -34.38,15.02 -33.38,12.95 -32.39,10.88 -31.38,8.87 -30.38,6.85 -29.24,4.95 -28.10,3.06 -27.00,1.93 -25.91,0.81 -24.52,-0.64 -23.13,-2.10 -21.51,-3.07 -19.88,-4.05 -17.70,-4.79 -15.52,-5.53 -13.98,-5.53 -12.43,-5.53 -10.96,-5.50 -9.49,-5.46 -7.14,-5.09 -4.80,-4.72 -3.35,-4.19 -1.89,-3.66 -0.37,-2.78 1.14,-1.91 1.35,-1.74 1.57,-1.58 1.73,-1.36 1.90,-1.15 2.01,-0.91 2.12,-0.66 2.17,-0.40 2.22,-0.14 2.20,0.12 2.19,0.39 2.11,0.65 2.03,0.90 1.89,1.13 1.75,1.36 1.56,1.55 1.37,1.74 1.15,1.88 0.92,2.02 0.66,2.10 0.40,2.19 0.14,2.20 -0.12,2.22 -0.39,2.17 -0.65,2.12 -0.90,2.01 -1.14,1.91 -1.14,1.91 L -1.14,1.91 Z"></path></g><g transform="translate(624.37188316829 132.5885713692369) rotate(0 4.145466525749725 -7.36971826799936)" stroke="none"><path fill="#000000" d="M -2.66,-0.17 Q -2.66,-0.17 -2.56,-1.50 -2.47,-2.82 -2.38,-4.77 -2.30,-6.72 -2.20,-8.28 -2.10,-9.85 -1.85,-11.24 -1.61,-12.64 -1.33,-13.88 -1.05,-15.12 -0.50,-16.39 0.03,-17.66 1.26,-18.94 2.49,-20.22 3.69,-20.62 4.89,-21.02 6.50,-20.43 8.12,-19.85 8.99,-18.97 9.87,-18.10 10.43,-16.58 10.98,-15.06 11.23,-13.55 11.48,-12.05 11.58,-10.41 11.68,-8.77 11.70,-7.46 11.72,-6.16 11.74,-4.57 11.77,-2.98 11.78,-1.61 11.80,-0.25 11.80,1.25 11.80,2.76 11.75,3.18 11.70,3.60 11.55,4.00 11.40,4.40 11.16,4.75 10.92,5.10 10.60,5.38 10.28,5.66 9.91,5.85 9.53,6.05 9.12,6.15 8.71,6.25 8.29,6.25 7.86,6.25 7.45,6.15 7.04,6.05 6.66,5.85 6.29,5.66 5.97,5.38 5.65,5.10 5.41,4.75 5.17,4.40 5.02,4.00 4.87,3.60 4.82,3.18 4.77,2.76 4.86,2.20 4.95,1.64 5.22,1.14 5.49,0.63 5.90,0.24 6.31,-0.14 6.83,-0.38 7.34,-0.62 7.91,-0.68 8.48,-0.74 9.03,-0.62 9.59,-0.50 10.08,-0.20 10.56,0.08 10.93,0.52 11.30,0.95 11.51,1.48 11.72,2.01 11.75,2.57 11.78,3.14 11.63,3.69 11.48,4.24 11.16,4.71 10.84,5.18 10.39,5.53 9.93,5.87 9.39,6.05 8.85,6.23 8.29,6.23 7.72,6.23 7.18,6.05 6.64,5.87 6.18,5.53 5.73,5.18 5.41,4.71 5.09,4.24 4.94,3.69 4.79,3.14 4.82,2.57 4.85,2.01 5.06,1.48 5.27,0.95 5.64,0.51 6.01,0.08 6.50,-0.20 6.98,-0.50 7.54,-0.62 8.10,-0.74 8.66,-0.68 9.23,-0.62 9.74,-0.38 10.26,-0.14 10.67,0.24 11.09,0.63 11.35,1.14 11.62,1.64 11.71,2.20 11.80,2.76 11.80,2.76 11.80,2.76 11.75,3.18 11.70,3.60 11.55,4.00 11.40,4.40 11.16,4.75 10.92,5.09 10.60,5.38 10.28,5.66 9.91,5.85 9.53,6.05 9.12,6.15 8.71,6.25 8.29,6.25 7.86,6.25 7.45,6.15 7.04,6.05 6.66,5.85 6.29,5.66 5.97,5.38 5.65,5.10 5.41,4.75 5.17,4.40 5.02,4.00 4.87,3.60 4.82,3.18 4.77,2.76 4.77,1.25 4.77,-0.25 4.79,-1.61 4.81,-2.97 4.82,-4.54 4.84,-6.12 4.83,-7.33 4.83,-8.55 4.78,-9.72 4.73,-10.89 4.59,-12.00 4.44,-13.10 4.35,-14.42 4.25,-15.74 4.57,-14.57 4.90,-13.40 4.57,-12.34 4.25,-11.29 3.94,-10.12 3.63,-8.96 3.42,-7.51 3.22,-6.06 3.02,-4.26 2.83,-2.47 2.74,-1.14 2.66,0.17 2.60,0.49 2.54,0.80 2.40,1.10 2.27,1.39 2.07,1.64 1.87,1.89 1.61,2.09 1.36,2.28 1.07,2.41 0.77,2.55 0.46,2.60 0.14,2.66 -0.17,2.64 -0.49,2.61 -0.80,2.52 -1.10,2.42 -1.38,2.25 -1.65,2.08 -1.88,1.85 -2.10,1.63 -2.27,1.35 -2.43,1.07 -2.53,0.77 -2.62,0.46 -2.64,0.14 -2.65,-0.17 -2.66,-0.17 L -2.66,-0.17 Z"></path></g><g transform="translate(626.8284559242893 114.77841888823787) rotate(0 0.6141431890000604 -16.42833030574957)" stroke="none"><path fill="#000000" d="M 0,2.52 Q 0,2.52 -0.61,2.56 -1.23,2.61 -2.30,2.71 -3.38,2.81 -4.92,2.44 -6.47,2.08 -7.71,1.47 -8.95,0.86 -9.93,0.13 -10.91,-0.58 -12.02,-1.57 -13.13,-2.56 -13.84,-3.69 -14.54,-4.81 -15.40,-5.99 -16.26,-7.18 -17.15,-8.22 -18.04,-9.27 -18.48,-10.53 -18.91,-11.80 -19.13,-12.95 -19.35,-14.11 -19.50,-15.20 -19.65,-16.28 -19.67,-17.39 -19.68,-18.49 -19.20,-20.06 -18.73,-21.63 -18.19,-22.77 -17.65,-23.91 -16.91,-25.22 -16.16,-26.53 -15.51,-27.40 -14.87,-28.27 -15.03,-29.57 -15.19,-30.86 -14.21,-32.97 -13.23,-35.08 -12.24,-35.56 -11.25,-36.05 -10.08,-35.83 -8.92,-35.62 -8.05,-34.97 -7.19,-34.32 -6.15,-33.33 -5.12,-32.34 -3.93,-31.44 -2.75,-30.55 -1.10,-30.86 0.53,-31.17 1.65,-30.98 2.77,-30.80 3.91,-30.44 5.04,-30.09 6.09,-29.67 7.14,-29.25 8.08,-28.47 9.01,-27.69 7.59,-27.99 6.17,-28.29 5.08,-27.95 3.99,-27.61 4.54,-28.99 5.09,-30.37 6.43,-31.24 7.76,-32.11 9.05,-32.53 10.34,-32.95 12.08,-32.14 13.81,-31.34 14.63,-29.89 15.45,-28.45 15.61,-27.12 15.77,-25.80 15.79,-24.71 15.81,-23.62 15.82,-23.45 15.82,-23.28 15.76,-22.82 15.71,-22.36 15.54,-21.93 15.38,-21.49 15.12,-21.11 14.85,-20.73 14.51,-20.42 14.16,-20.11 13.75,-19.90 13.34,-19.68 12.89,-19.57 12.44,-19.46 11.98,-19.46 11.51,-19.46 11.06,-19.57 10.61,-19.68 10.20,-19.89 9.79,-20.11 9.44,-20.42 9.09,-20.72 8.83,-21.10 8.57,-21.49 8.40,-21.92 8.24,-22.35 8.18,-22.81 8.12,-23.27 8.74,-24.71 9.36,-26.14 10.37,-26.90 11.38,-27.65 13.36,-27.57 15.34,-27.49 16.65,-26.54 17.96,-25.58 18.69,-24.56 19.42,-23.55 19.75,-22.41 20.08,-21.27 20.25,-20.00 20.42,-18.73 20.43,-17.59 20.44,-16.45 20.70,-15.31 20.95,-14.17 21.00,-12.84 21.05,-11.51 20.82,-9.94 20.58,-8.37 19.92,-7.31 19.26,-6.24 18.17,-4.62 17.07,-3.00 15.80,-2.04 14.53,-1.07 13.14,-0.33 11.76,0.41 10.43,0.83 9.11,1.25 7.36,2.06 5.61,2.87 5.01,3.02 4.40,3.17 3.78,3.13 3.16,3.08 2.59,2.84 2.02,2.59 1.55,2.18 1.09,1.77 0.78,1.23 0.47,0.69 0.35,0.08 0.23,-0.52 0.31,-1.14 0.39,-1.75 0.66,-2.31 0.94,-2.87 1.37,-3.31 1.81,-3.75 2.37,-4.03 2.92,-4.31 3.54,-4.40 4.15,-4.49 4.76,-4.37 5.37,-4.26 5.92,-3.96 6.46,-3.65 6.88,-3.19 7.30,-2.73 7.54,-2.16 7.79,-1.59 7.85,-0.97 7.90,-0.35 7.75,0.24 7.61,0.84 7.28,1.37 6.94,1.89 6.46,2.29 5.98,2.68 5.40,2.90 4.81,3.11 4.19,3.13 3.57,3.15 2.98,2.98 2.38,2.80 1.87,2.44 1.37,2.08 1.00,1.57 0.64,1.07 0.45,0.48 0.27,-0.11 0.28,-0.73 0.29,-1.35 0.50,-1.93 0.72,-2.52 1.10,-3.00 1.49,-3.49 2.01,-3.83 2.53,-4.17 2.53,-4.17 2.53,-4.17 4.57,-5.05 6.60,-5.94 7.83,-6.40 9.06,-6.85 10.42,-7.71 11.79,-8.58 12.57,-9.48 13.35,-10.38 13.42,-11.50 13.50,-12.63 13.27,-13.67 13.04,-14.72 12.92,-16.40 12.81,-18.07 12.33,-19.35 11.85,-20.63 13.39,-20.74 14.93,-20.85 15.38,-22.07 15.82,-23.28 15.76,-22.82 15.71,-22.36 15.54,-21.93 15.38,-21.49 15.12,-21.11 14.85,-20.73 14.51,-20.42 14.16,-20.11 13.75,-19.90 13.34,-19.68 12.89,-19.57 12.44,-19.46 11.98,-19.46 11.51,-19.46 11.06,-19.57 10.61,-19.68 10.20,-19.89 9.79,-20.11 9.44,-20.42 9.09,-20.72 8.83,-21.10 8.57,-21.48 8.40,-21.92 8.24,-22.35 8.18,-22.81 8.12,-23.27 8.13,-24.14 8.13,-25.00 8.59,-25.99 9.06,-26.99 10.16,-26.62 11.25,-26.25 10.80,-25.27 10.36,-24.29 9.54,-23.48 8.73,-22.67 7.52,-22.28 6.32,-21.89 5.11,-22.20 3.91,-22.51 2.85,-22.91 1.79,-23.31 0.34,-23.57 -1.10,-23.83 -2.31,-23.83 -3.53,-23.83 -4.68,-23.94 -5.84,-24.04 -7.24,-24.84 -8.63,-25.65 -9.84,-26.65 -11.04,-27.65 -11.99,-28.36 -12.93,-29.08 -11.21,-29.45 -9.48,-29.83 -8.51,-30.34 -7.53,-30.86 -7.53,-29.65 -7.53,-28.44 -7.58,-27.30 -7.63,-26.16 -8.28,-25.04 -8.93,-23.93 -9.53,-22.95 -10.14,-21.96 -10.87,-21.11 -11.61,-20.25 -11.91,-18.74 -12.22,-17.23 -12.08,-16.15 -11.95,-15.07 -12.15,-13.86 -12.36,-12.65 -11.33,-11.65 -10.30,-10.65 -9.71,-9.70 -9.12,-8.75 -8.57,-7.53 -8.01,-6.31 -6.83,-5.22 -5.65,-4.12 -4.51,-3.47 -3.38,-2.81 -2.30,-2.71 -1.23,-2.61 -0.61,-2.56 0,-2.52 0.30,-2.48 0.60,-2.44 0.88,-2.33 1.17,-2.23 1.42,-2.05 1.67,-1.88 1.87,-1.65 2.07,-1.43 2.21,-1.16 2.35,-0.89 2.42,-0.59 2.50,-0.30 2.50,0.00 2.50,0.30 2.42,0.59 2.35,0.89 2.21,1.16 2.07,1.43 1.87,1.65 1.67,1.88 1.42,2.05 1.17,2.23 0.88,2.34 0.60,2.44 0.30,2.48 -0.00,2.52 -0.00,2.52 L 0,2.52 Z"></path></g><g transform="translate(622.8365251957894 121.53399396723762) rotate(0 -5.834360295499664 -1.3818221752503632)" stroke="none"><path fill="#000000" d="M 1.11,2.22 Q 1.11,2.22 0.60,2.53 0.09,2.84 -1.11,3.37 -2.33,3.90 -3.49,4.19 -4.65,4.48 -6.20,4.38 -7.74,4.27 -8.73,3.64 -9.72,3.01 -10.99,2.27 -12.26,1.54 -13.55,-0.86 -14.85,-3.27 -14.90,-3.80 -14.96,-4.34 -14.85,-4.87 -14.73,-5.40 -14.45,-5.86 -14.18,-6.32 -13.76,-6.67 -13.35,-7.02 -12.85,-7.22 -12.35,-7.42 -11.81,-7.45 -11.27,-7.48 -10.75,-7.34 -10.23,-7.20 -9.78,-6.89 -9.33,-6.59 -9.00,-6.16 -8.68,-5.73 -8.50,-5.22 -8.33,-4.70 -8.33,-4.16 -8.33,-3.62 -8.50,-3.11 -8.67,-2.60 -9.00,-2.17 -9.33,-1.74 -9.78,-1.43 -10.22,-1.13 -10.74,-0.99 -11.26,-0.84 -11.80,-0.87 -12.34,-0.90 -12.85,-1.10 -13.35,-1.30 -13.76,-1.65 -14.17,-2.00 -14.45,-2.46 -14.73,-2.92 -14.85,-3.45 -14.96,-3.98 -14.91,-4.52 -14.85,-5.05 -14.62,-5.55 -14.39,-6.04 -14.02,-6.43 -13.65,-6.82 -13.17,-7.07 -12.70,-7.33 -12.16,-7.42 -11.63,-7.50 -11.10,-7.42 -10.56,-7.33 -10.08,-7.08 -9.61,-6.82 -9.23,-6.43 -8.86,-6.04 -8.64,-5.55 -8.41,-5.06 -8.41,-5.06 -8.41,-5.06 -7.60,-3.72 -6.79,-2.38 -5.69,-1.69 -4.59,-1.01 -3.40,-1.39 -2.21,-1.78 -1.66,-2.00 -1.11,-2.22 -0.83,-2.32 -0.54,-2.42 -0.24,-2.45 0.04,-2.48 0.34,-2.44 0.64,-2.40 0.92,-2.29 1.20,-2.18 1.44,-2.00 1.68,-1.83 1.88,-1.60 2.07,-1.37 2.21,-1.10 2.34,-0.83 2.41,-0.54 2.47,-0.25 2.47,0.04 2.46,0.34 2.38,0.63 2.31,0.92 2.16,1.19 2.02,1.45 1.81,1.67 1.61,1.89 1.36,2.06 1.11,2.22 1.11,2.22 L 1.11,2.22 Z"></path></g><g stroke-linecap="round"><g transform="translate(850.8786625472085 109.23888748136142) rotate(0 186.28928711218987 -0.9204210524508198)"><path d="M0.41 0.33 C62.6 -0.08, 311.18 -1.67, 373.41 -2.17 M-0.84 -0.54 C61.13 -0.78, 309.94 -0.49, 372.25 -0.68" stroke="#000000" stroke-width="1" fill="none"></path></g><g transform="translate(850.8786625472085 109.23888748136142) rotate(0 186.28928711218987 -0.9204210524508198)"><path d="M344.62 8.92 C353.04 6.14, 361.34 3.81, 371.06 -1.06 M343.9 10.26 C352.56 7.11, 360.18 4.35, 372.78 -1.34" stroke="#000000" stroke-width="1" fill="none"></path></g><g transform="translate(850.8786625472085 109.23888748136142) rotate(0 186.28928711218987 -0.9204210524508198)"><path d="M344.61 -11.6 C353.08 -7.73, 361.39 -3.42, 371.06 -1.06 M343.89 -10.26 C352.61 -7.54, 360.23 -4.43, 372.78 -1.34" stroke="#000000" stroke-width="1" fill="none"></path></g></g><g transform="translate(880.3180053071637 10) rotate(0 152 45)"><text x="152" y="32" font-family="Virgil, Segoe UI Emoji" font-size="36px" fill="#000000" text-anchor="middle" style="white-space: pre;" direction="ltr">Via Terraform</text><text x="152" y="77" font-family="Virgil, Segoe UI Emoji" font-size="36px" fill="#000000" text-anchor="middle" style="white-space: pre;" direction="ltr">in GitHub Actions</text></g><g stroke-linecap="round" transform="translate(1244.9482523816232 24.529416985642456) rotate(0 139.7065864022502 81.36363636363649)"><path d="M0.17 -0.81 C92.11 0.29, 184.29 1.01, 279.27 0.49 M-0.75 -0.54 C69.24 -1.11, 137.63 0.25, 279.11 -0.62 M277.73 1.38 C278.3 47.41, 278.61 93.41, 280.07 162.55 M278.81 0.91 C278.08 57.97, 277.55 117.73, 278.73 162 M279.75 163.34 C195.21 163.37, 111 165.01, -0.38 162.94 M279.52 163.02 C189.81 162.1, 99.99 162.18, -0.05 162.98 M1.6 163.72 C-2.2 125.47, -2.59 84.61, -0.58 1.62 M0.44 163.38 C-1.08 126.44, -1.11 89.43, 0.94 0.06" stroke="#000000" stroke-width="1" fill="none"></path></g><g transform="translate(1301.1039269497915 62.324007037367664) rotate(0 83.5 22.5)"><text x="83.5" y="32" font-family="Virgil, Segoe UI Emoji" font-size="36px" fill="#000000" text-anchor="middle" style="white-space: pre;" direction="ltr">Registrar</text></g><g transform="translate(1285.0600313357481 108.57494833475994) rotate(0 102.5 17.5)"><text x="102.5" y="25" font-family="Virgil, Segoe UI Emoji" font-size="28px" fill="#000000" text-anchor="middle" style="white-space: pre;" direction="ltr">(e.g. GoDaddy)</text></g></svg>